# xmcd CD database file generated by OrangeCD 5.2
#
# Track frame offsets:
#	150
#	14307
#	34784
#	51472
#	67615
#	86673
#	101215
#	110901
#	131664
#	143035
#	157573
#	166925
#	184156
#	199720
#	211898
#	230969
#	244809
#	262854
#	276437
#	288680
#
# Disc length: 4090 seconds
#
# Revision: 0
# Processed by: cddbd v1.5.1PL0 Copyright (c) Steve Scherf et al.
# Submitted via: OrangeCD 5.2
#
DISCID=270ff814
DTITLE=Aaron Neville - Tell It Like It Is
DYEAR=2001
DGENRE=Soul
TTITLE0=Tell It Like It Is
TTITLE1=Mojo Hannah
TTITLE2=Cry Me A River
TTITLE3=The Greatest Love
TTITLE4=Hercules
TTITLE5=Baby, I'm A-Want You
TTITLE6=Over You
TTITLE7=Wild Flower
TTITLE8=Show Me The Way
TTITLE9=How Could I Help But Love You
TTITLE10=Get Out Of My Life
TTITLE11=Make Me Strong
TTITLE12=One Fine Day
TTITLE13=Speak To Me
TTITLE14=Going Home
TTITLE15=Performance
TTITLE16=Nadie
TTITLE17=For The Good Times
TTITLE18=She's On My Mind
TTITLE19=Feelings
EXTD=
EXTT0=
EXTT1=
EXTT2=
EXTT3=
EXTT4=
EXTT5=
EXTT6=
EXTT7=
EXTT8=
EXTT9=
EXTT10=
EXTT11=
EXTT12=
EXTT13=
EXTT14=
EXTT15=
EXTT16=
EXTT17=
EXTT18=
EXTT19=
PLAYORDER=
